<?xml version="1.0" encoding="UTF-8" standalone="no"?>
<!DOCTYPE svg PUBLIC "-//W3C//DTD SVG 1.1//EN" "http://www.w3.org/Graphics/SVG/1.1/DTD/svg11.dtd">
<svg width="100%" height="100%" viewBox="0 0 4000 3971" version="1.1" xmlns="http://www.w3.org/2000/svg" xmlns:xlink="http://www.w3.org/1999/xlink" xml:space="preserve" xmlns:serif="http://www.serif.com/" style="fill-rule:evenodd;clip-rule:evenodd;stroke-linecap:round;stroke-linejoin:round;stroke-miterlimit:1.5;">
    <g transform="matrix(69.806,0,0,69.9494,-8975.55,-9208.33)">
        <circle cx="157.229" cy="159.82" r="26.32" style="fill:white;stroke:rgb(255,0,31);stroke-width:0.09px;"/>
    </g>
    <g transform="matrix(58.7071,0,0,53.0138,-6653.72,-7509.32)">
        <path d="M147.405,143.792C165.076,143.792 179.423,159.61 179.423,179.094C179.423,198.578 165.076,214.396 147.405,214.396C129.734,214.396 115.387,198.578 115.387,179.094C115.387,159.61 129.734,143.792 147.405,143.792ZM147.405,144.11C164.917,144.11 179.134,159.786 179.134,179.094C179.134,198.402 164.917,214.077 147.405,214.077C129.893,214.077 115.676,198.402 115.676,179.094C115.676,159.786 129.893,144.11 147.405,144.11Z" style="fill:rgb(38,9,152);stroke:rgb(38,9,152);stroke-width:1.15px;"/>
    </g>
    <g transform="matrix(10.6021,-10.4263,41.4554,42.1545,-4680.47,-1843.99)">
        <rect x="121.315" y="93.404" width="36.898" height="63.417" style="fill:rgb(38,9,152);"/>
    </g>
    <g transform="matrix(-10.6631,-10.364,41.2076,-42.3968,-1665.28,8719.18)">
        <rect x="121.315" y="93.404" width="36.898" height="63.417" style="fill:rgb(38,9,152);"/>
    </g>
    <g transform="matrix(64.8499,0,0,64.4454,-7519.8,-7726.34)">
        <circle cx="146.797" cy="150.693" r="17.193" style="fill:white;stroke:rgb(38,9,152);stroke-width:0.99px;"/>
    </g>
    <g transform="matrix(14.8699,0,0,14.8699,-1271.81,-1315.82)">
        <g id="text-path" serif:id="text path">
            <g transform="matrix(0.929706,-0.368302,0.368302,0.929706,-38.5486,74.0105)">
                <text x="174.614px" y="137.992px" style="font-family:'Arial-BoldMT', 'Arial', sans-serif;font-weight:700;font-size:27.505px;fill:rgb(38,9,152);">C</text>
            </g>
            <g transform="matrix(0.972332,-0.233603,0.233603,0.972332,-25.2771,48.7611)">
                <text x="193.209px" y="131.089px" style="font-family:'Arial-BoldMT', 'Arial', sans-serif;font-weight:700;font-size:27.505px;fill:rgb(38,9,152);">I</text>
            </g>
            <g transform="matrix(0.996248,-0.0865478,0.0865478,0.996248,-10.3929,17.8435)">
                <text x="200.586px" y="128.779px" style="font-family:'Arial-BoldMT', 'Arial', sans-serif;font-weight:700;font-size:27.505px;fill:rgb(38,9,152);">R</text>
            </g>
            <g transform="matrix(0.994668,0.103129,-0.103129,0.994668,14.2705,-22.059)">
                <text x="220.461px" y="126.976px" style="font-family:'Arial-BoldMT', 'Arial', sans-serif;font-weight:700;font-size:27.505px;fill:rgb(38,9,152);">C</text>
            </g>
            <g transform="matrix(0.954823,0.297176,-0.297176,0.954823,49.2123,-65.5633)">
                <text x="240.243px" y="129.077px" style="font-family:'Arial-BoldMT', 'Arial', sans-serif;font-weight:700;font-size:27.505px;fill:rgb(38,9,152);">E</text>
            </g>
            <g transform="matrix(0.87491,0.484285,-0.484285,0.87491,171.329,-41.9954)">
                <text x="166.957px" y="310.653px" style="font-family:'Arial-BoldMT', 'Arial', sans-serif;font-weight:700;font-size:18.935px;fill:rgb(38,9,152);">L</text>
            </g>
            <g transform="matrix(0.927995,0.372593,-0.372593,0.927995,130.619,-43.1948)">
                <text x="177.066px" y="316.35px" style="font-family:'Arial-BoldMT', 'Arial', sans-serif;font-weight:700;font-size:18.935px;fill:rgb(38,9,152);">A</text>
            </g>
            <g transform="matrix(0.970755,0.24007,-0.24007,0.970755,82.7186,-36.1582)">
                <text x="189.772px" y="321.442px" style="font-family:'Arial-BoldMT', 'Arial', sans-serif;font-weight:700;font-size:18.935px;fill:rgb(38,9,152);">U</text>
            </g>
            <g transform="matrix(0.994709,0.102735,-0.102735,0.994709,34.4344,-19.1438)">
                <text x="203.065px" y="324.718px" style="font-family:'Arial-BoldMT', 'Arial', sans-serif;font-weight:700;font-size:18.935px;fill:rgb(38,9,152);">N</text>
            </g>
            <g transform="matrix(0.999401,-0.0346054,0.0346054,0.999401,-11.1555,7.69415)">
                <text x="216.695px" y="326.115px" style="font-family:'Arial-BoldMT', 'Arial', sans-serif;font-weight:700;font-size:18.935px;fill:rgb(38,9,152);">C</text>
            </g>
            <g transform="matrix(0.985022,-0.172427,0.172427,0.985022,-52.6976,44.604)">
                <text x="230.397px" y="325.636px" style="font-family:'Arial-BoldMT', 'Arial', sans-serif;font-weight:700;font-size:18.935px;fill:rgb(38,9,152);">H</text>
            </g>
            <g transform="matrix(0.952248,-0.305327,0.305327,0.952248,-87.0515,89.899)">
                <text x="243.88px" y="323.251px" style="font-family:'Arial-BoldMT', 'Arial', sans-serif;font-weight:700;font-size:18.935px;fill:rgb(38,9,152);">E</text>
            </g>
            <g transform="matrix(0.906659,-0.421864,0.421864,0.906659,-110.859,137.768)">
                <text x="255.898px" y="319.404px" style="font-family:'Arial-BoldMT', 'Arial', sans-serif;font-weight:700;font-size:18.935px;fill:rgb(38,9,152);">S</text>
            </g>
        </g>
    </g>
</svg>
